#N canvas 960 0 476 1002 12;
#X obj 140 384 dac~;
#X obj 110 278 *~ 0.2;
#X floatatom 26 157 5 0 0 0 - - - 0;
#X obj 115 220 osc~;
#X obj 170 63 +~ -1;
#X obj 72 202 +~;
#X obj 204 139 osc~;
#X obj 219 107 *~ 110;
#X obj 245 24 phasor~ 1;
#X obj 146 169 *~ 440;
#X connect 1 0 0 0;
#X connect 1 0 0 1;
#X connect 2 0 5 0;
#X connect 3 0 1 0;
#X connect 4 0 7 0;
#X connect 5 0 3 0;
#X connect 6 0 9 0;
#X connect 7 0 6 0;
#X connect 8 0 4 0;
#X connect 9 0 5 1;
